<svg width="737" height="425" viewBox="0 0 737 425" fill="none" xmlns="http://www.w3.org/2000/svg">
<rect width="737" height="425" fill="white"/>
<rect x="384.252" y="218" width="13" height="12" fill="white"/>
<rect x="191.424" y="183.466" width="94.0784" height="77.2247" rx="12" fill="url(#paint0_linear)"/>
<rect x="410.467" y="231.476" width="18.8499" height="7.85411" fill="white"/>
<rect x="251.536" y="215.08" width="26" height="5" fill="white"/>
<path d="M236.397 193.544L248.322 205.469L236.397 217.394" stroke="white" stroke-width="5"/>
<path d="M222.744 175.988L205.378 218.053L193.461 212.883C210.647 171.714 214.66 173.146 222.746 175.987L222.744 175.988Z" fill="white"/>
<path d="M205.713 218.871C205.448 218.972 205.154 218.971 204.89 218.868L192.986 213.898C192.715 213.779 192.501 213.56 192.388 213.287C192.276 213.014 192.274 212.707 192.383 212.432C209.328 171.843 213.808 171.576 223.132 174.935C223.438 175.025 223.684 175.253 223.797 175.553C223.958 175.821 223.968 176.158 223.818 176.436L206.356 218.268C206.226 218.545 205.998 218.759 205.714 218.873L205.713 218.871ZM194.922 212.28L204.678 216.353L221.244 176.672C219.773 175.854 218.052 175.607 216.41 175.979C214.768 176.35 213.321 177.314 212.345 178.685C208.187 183.065 202.85 193.407 194.922 212.28Z" fill="url(#paint1_linear)"/>
<path d="M217.27 222.823L205.789 217.885L223.395 176.404C234.567 180.923 228.076 198.794 217.269 222.821L217.27 222.823Z" fill="white"/>
<path d="M217.703 223.877C217.435 223.963 217.147 223.962 216.88 223.874L205.296 219.184C205.048 218.934 204.91 218.597 204.91 218.246C204.721 218.036 204.61 217.765 204.597 217.483L222.059 175.653C222.322 175.075 222.988 174.802 223.582 175.028C226.261 176.017 228.373 178.123 229.376 180.796C232.626 188.705 227.696 202.373 218.319 223.213C218.197 223.501 217.978 223.736 217.701 223.878L217.703 223.877ZM207.312 217.259L216.651 221.156C223.818 205.267 230.315 189.242 227.193 181.484C226.583 179.819 225.381 178.436 223.817 177.6L207.312 217.259Z" fill="url(#paint2_linear)"/>
<path d="M193.766 212.964L202.034 216.416C202.085 216.433 202.131 216.461 202.171 216.498C202.21 216.535 202.241 216.58 202.261 216.63C202.282 216.68 202.291 216.734 202.289 216.788C202.288 216.842 202.274 216.895 202.251 216.943L190.971 224.66C190.504 224.981 189.882 224.949 189.446 224.588C189.011 224.228 188.868 223.619 189.097 223.101L193.366 212.992C193.366 212.992 193.602 212.895 193.766 212.964Z" fill="white"/>
<path d="M191.16 225.951C190.768 226.107 190.342 226.159 189.923 226.103C189.504 226.047 189.107 225.885 188.769 225.632C187.949 224.949 187.672 223.807 188.096 222.827L192.282 212.683C192.445 212.346 192.726 212.082 193.072 211.94C193.418 211.798 193.804 211.788 194.156 211.912L202.424 215.364C202.907 215.551 203.248 215.994 203.306 216.509C203.363 217.025 203.127 217.551 202.696 217.856L191.416 225.574L191.16 225.951ZM194.063 214.349L190.164 223.69L200.158 216.842L194.063 214.349Z" fill="url(#paint3_linear)"/>
<path d="M231.738 153.046C225.817 150.698 219.084 153.264 216.224 158.952C213.363 164.64 215.326 171.579 220.749 174.924C226.171 178.269 233.247 176.922 237.057 171.817L225.813 167.123L231.738 153.046Z" fill="white"/>
<path d="M232.304 176.919C229.855 177.889 227.174 178.117 224.597 177.574C222.019 177.032 219.658 175.742 217.808 173.867C214.024 170.034 212.895 164.314 214.92 159.341C216.32 156.075 218.945 153.488 222.232 152.137C225.519 150.786 229.205 150.779 232.497 152.118C232.799 152.215 233.041 152.441 233.162 152.736C233.221 152.881 233.248 153.037 233.242 153.193C233.235 153.35 233.195 153.503 233.124 153.643L227.316 166.508L237.437 170.636C237.599 170.7 237.744 170.802 237.858 170.934C237.972 171.067 238.052 171.225 238.09 171.395C238.136 171.556 238.146 171.725 238.119 171.89C238.092 172.055 238.03 172.212 237.936 172.35C236.497 174.356 234.546 175.938 232.286 176.932L232.304 176.919ZM222.961 154.185C218.796 155.923 216.092 159.969 216.103 164.451C216.114 168.934 218.783 173.002 222.921 174.748C227.131 176.518 231.976 175.533 235.178 172.245L225.422 168.172C225.115 168.083 224.87 167.855 224.757 167.554C224.653 167.276 224.675 166.967 224.82 166.707L230.179 153.751C227.79 153.105 225.256 153.258 222.96 154.183L222.961 154.185Z" fill="url(#paint4_linear)"/>
<path d="M231.988 153.149L226.062 167.226L237.306 171.921C237.919 171.13 238.439 170.273 238.857 169.365C241.302 162.966 238.273 155.819 231.988 153.149Z" fill="white"/>
<path d="M237.489 172.873C237.36 172.934 237.219 172.965 237.077 172.965C236.934 172.964 236.794 172.932 236.665 172.87L225.421 168.176C225.115 168.086 224.87 167.858 224.757 167.558C224.652 167.279 224.674 166.97 224.819 166.71L230.758 152.833C230.794 152.648 230.876 152.476 230.996 152.331C231.115 152.185 231.269 152.072 231.443 152C231.617 151.929 231.806 151.901 231.993 151.921C232.18 151.94 232.36 152.005 232.516 152.111C234.156 152.776 235.646 153.761 236.901 155.01C238.155 156.258 239.148 157.745 239.82 159.382C240.493 161.018 240.832 162.773 240.819 164.543C240.805 166.313 240.438 168.062 239.739 169.688C239.35 170.703 238.82 171.658 238.165 172.525C237.992 172.725 237.749 172.85 237.486 172.874L237.489 172.873ZM227.337 166.5L236.677 170.399C237.002 169.893 237.288 169.363 237.534 168.814C238.682 166.074 238.696 162.99 237.572 160.239C236.565 157.777 234.692 155.77 232.307 154.595L227.337 166.5Z" fill="url(#paint5_linear)"/>
<path d="M224.48 176.714C222.196 175.844 219.632 176.898 218.62 179.122L202.963 216.509L209.188 219.157L227.139 183.015C227.666 181.83 227.68 180.482 227.173 179.287C226.667 178.093 225.693 177.16 224.479 176.712L224.48 176.714Z" fill="white"/>
<path d="M209.387 220.31C209.122 220.411 208.828 220.41 208.564 220.306L202.28 217.683C202.009 217.564 201.795 217.345 201.682 217.072C201.57 216.799 201.568 216.492 201.677 216.218L217.359 178.885C218.601 175.919 222.011 174.518 224.977 175.754C226.465 176.375 227.627 177.58 228.196 179.088C228.743 180.594 228.66 182.256 227.968 183.701L210.017 219.843C209.872 220.072 209.647 220.236 209.386 220.307L209.387 220.31ZM204.018 216.075L208.174 217.86L225.863 182.579C226.3 181.705 226.358 180.69 226.013 179.776C225.668 178.863 224.949 178.126 224.031 177.784C222.226 177.036 220.159 177.886 219.402 179.686L204.018 216.075Z" fill="url(#paint6_linear)"/>
<path d="M194.798 255.136C194.765 255.269 194.776 255.408 194.827 255.535C194.879 255.661 194.971 255.768 195.087 255.839L198.353 260.455C198.704 261.022 198.661 261.749 198.256 262.293C198.058 262.553 197.782 262.743 197.469 262.836C197.155 262.93 196.82 262.921 196.512 262.812L185.308 258.376L199.963 222.878L208.635 219.314L216.903 222.765C211.047 234.514 203.61 245.405 194.798 255.136Z" fill="white"/>
<path d="M197.811 263.965C197.142 264.225 196.375 264.221 195.74 263.925L184.911 259.404C184.604 259.315 184.359 259.087 184.246 258.786C184.142 258.508 184.164 258.199 184.309 257.939L199.123 222.334C199.203 222.126 199.345 221.948 199.531 221.825L208.26 218.237C208.454 218.064 208.702 217.962 208.963 217.948L217.231 221.4C217.543 221.516 217.779 221.778 217.86 222.1C217.924 222.243 217.954 222.4 217.947 222.557C217.94 222.715 217.898 222.868 217.822 223.006L217.523 223.61C211.489 235.032 204.053 245.657 195.387 255.238L198.452 259.526C198.688 259.856 198.848 260.236 198.919 260.636C198.991 261.036 198.972 261.448 198.864 261.84C198.756 262.232 198.562 262.595 198.296 262.902C198.03 263.21 197.698 263.454 197.326 263.617L197.811 263.965ZM186.883 257.703L196.66 261.834C196.748 261.865 196.844 261.862 196.931 261.827C197.017 261.791 197.087 261.725 197.128 261.641C197.146 261.564 197.14 261.482 197.11 261.409C197.079 261.335 197.027 261.273 196.959 261.231L193.693 256.614C193.194 255.938 193.237 255.004 193.802 254.379C202.206 244.987 209.439 234.609 215.343 223.473L208.563 220.643L200.712 223.869L186.883 257.703Z" fill="url(#paint7_linear)"/>
<path d="M181.747 266.869L185.198 258.601L197.93 263.917L183.167 268.82C182.647 268.991 182.071 268.809 181.746 268.362C181.421 267.915 181.423 267.313 181.75 266.871L181.747 266.869Z" fill="white"/>
<path d="M198.465 264.724L183.759 269.604C182.878 269.874 181.911 269.593 181.293 268.941C180.676 268.288 180.48 267.292 180.812 266.432L184.263 258.164C184.382 257.893 184.601 257.679 184.874 257.566C185.148 257.454 185.454 257.452 185.729 257.561L198.377 262.842C198.776 263.088 198.97 263.559 198.858 264.013C198.812 264.288 198.674 264.538 198.464 264.722L198.465 264.724ZM182.82 267.319L194.851 263.266L185.926 259.879L182.82 267.319Z" fill="url(#paint8_linear)"/>
<path d="M209.746 219.684L198.657 226.365L202.719 216.752L209.746 219.684Z" fill="white"/>
<path d="M199.114 227.475C198.716 227.651 198.254 227.571 197.934 227.274C197.74 227.155 197.588 226.978 197.502 226.767C197.415 226.557 197.398 226.324 197.453 226.103L201.432 216.455C201.695 215.877 202.36 215.603 202.954 215.829L209.983 218.76C210.148 218.877 210.276 219.038 210.352 219.225C210.429 219.411 210.451 219.616 210.417 219.815C210.447 220.027 210.415 220.244 210.326 220.439C210.236 220.634 210.092 220.799 209.911 220.914L198.94 227.546L199.114 227.475ZM203.344 218.271L201.101 223.643L207.255 219.951L203.344 218.271Z" fill="url(#paint9_linear)"/>
<path d="M209.744 219.68L201.916 224.129C201.716 224.271 201.475 224.343 201.23 224.337C200.985 224.33 200.749 224.245 200.556 224.094C200.363 223.942 200.225 223.733 200.16 223.496C200.096 223.26 200.109 223.009 200.199 222.781L202.719 216.745L209.744 219.68Z" fill="white"/>
<path d="M202.141 225.342C201.358 225.656 200.469 225.523 199.809 224.998C199.42 224.689 199.143 224.262 199.02 223.781C198.896 223.3 198.933 222.792 199.125 222.334L201.644 216.298C201.908 215.72 202.573 215.446 203.167 215.672L210.195 218.606C210.401 218.686 210.579 218.823 210.708 219.002C210.837 219.181 210.912 219.393 210.923 219.613C210.934 219.834 210.881 220.053 210.77 220.243C210.659 220.434 210.495 220.588 210.298 220.688L202.529 225.113L202.141 225.342ZM201.249 223.174L207.147 219.859L203.263 218.237L201.192 223.197L201.249 223.174ZM234.814 159.864C234.628 159.725 234.397 159.658 234.165 159.678C233.933 159.697 233.716 159.802 233.556 159.97C233.479 160.059 233.421 160.163 233.385 160.275C233.349 160.387 233.335 160.505 233.346 160.622C233.366 160.857 233.481 161.075 233.662 161.229C234.428 161.923 234.733 162.992 234.453 163.985C234.359 164.194 234.375 164.421 234.462 164.632C234.549 164.837 234.708 165.003 234.91 165.097C235.085 165.095 235.252 165.026 235.378 164.905C235.529 164.883 235.67 164.82 235.788 164.724C235.905 164.627 235.994 164.5 236.044 164.356C236.284 163.567 236.295 162.727 236.078 161.931C235.86 161.136 235.421 160.419 234.813 159.862L234.814 159.864Z" fill="url(#paint10_linear)"/>
<path d="M330.845 219.33C326.692 219.33 322.907 218.298 319.49 216.233C316.097 214.145 313.392 211.108 311.375 207.122C309.382 203.112 308.385 198.188 308.385 192.351C308.385 186.537 309.441 181.613 311.553 177.58C313.665 173.546 316.501 170.473 320.06 168.361C323.643 166.249 327.641 165.193 332.055 165.193C335.733 165.193 338.841 165.786 341.38 166.973C343.943 168.159 346.019 169.678 347.609 171.529C349.222 173.38 350.397 175.337 351.133 177.402C351.868 179.442 352.236 181.329 352.236 183.061C352.236 183.132 352.236 183.203 352.236 183.274C352.236 183.346 352.236 183.417 352.236 183.488H341.487C341.487 183.417 341.487 183.346 341.487 183.274C341.487 183.203 341.487 183.132 341.487 183.061C341.487 181.969 341.285 180.89 340.882 179.822C340.478 178.73 339.873 177.758 339.067 176.903C338.283 176.049 337.299 175.361 336.112 174.839C334.95 174.317 333.597 174.056 332.055 174.056C329.967 174.056 327.973 174.649 326.075 175.836C324.177 177.022 322.623 178.956 321.412 181.637C320.202 184.295 319.597 187.866 319.597 192.351C319.597 195.768 319.929 198.639 320.594 200.964C321.282 203.29 322.195 205.152 323.334 206.552C324.473 207.928 325.767 208.925 327.214 209.542C328.685 210.159 330.204 210.467 331.77 210.467C333.929 210.467 335.733 210.111 337.18 209.4C338.651 208.664 339.802 207.762 340.633 206.695C341.463 205.627 341.997 204.571 342.234 203.527V200.11H331.841V192.137H352.022V218.476H346.221L345.224 212.674C345.034 213.125 344.631 213.718 344.014 214.454C343.397 215.189 342.519 215.937 341.38 216.696C340.265 217.432 338.829 218.049 337.073 218.547C335.341 219.069 333.265 219.33 330.845 219.33ZM356.242 218.476V180.676H367.311V193.703L365.033 192.279C365.294 190.5 365.769 188.863 366.457 187.368C367.145 185.873 368.035 184.58 369.126 183.488C370.218 182.373 371.511 181.507 373.006 180.89C374.525 180.273 376.257 179.964 378.203 179.964C379.721 179.964 380.908 180.083 381.762 180.32C382.64 180.534 383.186 180.7 383.399 180.819L381.584 190.713C381.37 190.595 380.896 190.405 380.16 190.144C379.425 189.883 378.475 189.752 377.313 189.752C375.414 189.752 373.825 190.073 372.543 190.713C371.262 191.354 370.23 192.208 369.447 193.276C368.687 194.32 368.142 195.483 367.809 196.764C367.477 198.045 367.311 199.339 367.311 200.644V218.476H356.242ZM396.476 219.259C393.723 219.259 391.267 218.82 389.108 217.942C386.972 217.064 385.299 215.794 384.089 214.133C382.879 212.472 382.274 210.456 382.274 208.083C382.274 205.401 383.01 203.218 384.481 201.534C385.952 199.849 387.898 198.568 390.318 197.69C392.762 196.788 395.408 196.195 398.255 195.91C402.408 195.507 405.267 195.139 406.833 194.807C408.423 194.474 409.218 193.893 409.218 193.062C409.218 193.039 409.218 193.015 409.218 192.991C409.218 191.591 408.542 190.488 407.189 189.681C405.86 188.874 403.998 188.471 401.601 188.471C399.062 188.471 397.116 188.934 395.764 189.859C394.435 190.761 393.771 192.149 393.771 194.023H382.915C382.915 190.986 383.733 188.424 385.371 186.335C387.032 184.247 389.274 182.669 392.098 181.602C394.921 180.51 398.113 179.964 401.672 179.964C404.994 179.964 408.067 180.474 410.891 181.495C413.715 182.491 415.981 183.998 417.689 186.015C419.421 188.032 420.287 190.595 420.287 193.703C420.287 194.201 420.287 194.7 420.287 195.198C420.287 195.673 420.287 196.159 420.287 196.657V210.04C420.287 211.013 420.311 211.95 420.359 212.852C420.43 213.73 420.572 214.537 420.786 215.272C421.023 216.103 421.32 216.791 421.675 217.337C422.031 217.883 422.328 218.262 422.565 218.476H411.709C411.543 218.31 411.282 217.966 410.926 217.444C410.594 216.922 410.309 216.317 410.072 215.628C409.787 214.798 409.574 213.967 409.431 213.137C409.313 212.283 409.254 211.286 409.254 210.147L411.531 211.713C410.867 213.279 409.787 214.632 408.293 215.771C406.821 216.886 405.065 217.752 403.025 218.369C401.008 218.962 398.825 219.259 396.476 219.259ZM399.43 211.001C401.162 211.001 402.776 210.693 404.271 210.076C405.789 209.435 407.023 208.439 407.972 207.086C408.921 205.734 409.396 203.966 409.396 201.783V197.974L412.137 200.644C410.57 201.213 408.755 201.688 406.691 202.067C404.65 202.423 402.61 202.708 400.569 202.922C398.149 203.159 396.333 203.574 395.123 204.167C393.937 204.737 393.343 205.71 393.343 207.086C393.343 208.391 393.854 209.376 394.874 210.04C395.894 210.681 397.413 211.001 399.43 211.001ZM423.735 234.03V180.676H434.804V234.03H423.735ZM446.479 219.33C443.489 219.33 440.748 218.535 438.257 216.945C435.765 215.332 433.772 213.172 432.277 210.467C430.782 207.739 430.035 204.678 430.035 201.284C430.035 201.19 430.035 201.106 430.035 201.035C430.035 200.94 430.035 200.834 430.035 200.715L434.804 200.608C434.804 200.679 434.804 200.751 434.804 200.822C434.804 200.893 434.804 200.964 434.804 201.035C434.804 202.791 435.231 204.334 436.086 205.662C436.94 206.967 438.043 207.976 439.396 208.688C440.748 209.4 442.16 209.756 443.631 209.756C446.052 209.756 448.152 208.925 449.931 207.264C451.735 205.579 452.636 202.957 452.636 199.398C452.636 195.839 451.746 193.252 449.967 191.639C448.187 190.001 446.075 189.183 443.631 189.183C442.16 189.183 440.748 189.539 439.396 190.251C438.043 190.939 436.94 191.924 436.086 193.205C435.231 194.486 434.804 196.017 434.804 197.796L430.035 197.512C430.035 194.095 430.782 191.081 432.277 188.471C433.772 185.837 435.765 183.761 438.257 182.242C440.748 180.724 443.489 179.964 446.479 179.964C449.54 179.964 452.399 180.724 455.057 182.242C457.714 183.737 459.862 185.932 461.499 188.827C463.16 191.722 463.99 195.246 463.99 199.398C463.99 203.74 463.184 207.395 461.57 210.361C459.957 213.327 457.821 215.569 455.163 217.088C452.506 218.583 449.611 219.33 446.479 219.33ZM492.864 218.476V205.022C492.864 204.547 492.864 203.895 492.864 203.064C492.864 202.234 492.864 201.391 492.864 200.537C492.864 199.683 492.864 198.995 492.864 198.473C492.864 195.578 492.342 193.347 491.298 191.781C490.254 190.191 488.344 189.396 485.568 189.396C483.764 189.396 482.246 189.764 481.012 190.5C479.778 191.212 478.84 192.22 478.2 193.525C477.583 194.83 477.274 196.361 477.274 198.117L474.071 195.91C474.071 192.754 474.747 189.99 476.1 187.617C477.452 185.22 479.315 183.346 481.688 181.993C484.085 180.641 486.849 179.964 489.981 179.964C494.608 179.964 498.084 181.329 500.41 184.057C502.735 186.763 503.898 190.535 503.898 195.376C503.898 196.61 503.898 198.093 503.898 199.825C503.898 201.557 503.898 203.562 503.898 205.84V218.476H492.864ZM466.241 218.476V162.844H477.274V218.476H466.241ZM524.758 217.978H534.154C534.154 219.117 534.546 220.066 535.329 220.825C536.135 221.608 537.096 222.225 538.212 222.676C539.327 223.127 540.383 223.459 541.379 223.672C542.4 223.886 543.1 224.016 543.479 224.064L540.347 231.432C539.991 231.408 539.232 231.289 538.069 231.076C536.93 230.886 535.602 230.53 534.083 230.008C532.588 229.486 531.129 228.727 529.705 227.73C528.281 226.757 527.095 225.476 526.146 223.886C525.22 222.296 524.758 220.327 524.758 217.978ZM529.741 219.33C526.466 219.33 523.405 218.737 520.558 217.55C517.71 216.364 515.207 214.62 513.048 212.318C510.888 210.017 509.192 207.181 507.958 203.812C506.724 200.418 506.107 196.539 506.107 192.173C506.107 187.783 506.712 183.915 507.922 180.569C509.156 177.2 510.853 174.376 513.012 172.098C515.171 169.82 517.675 168.1 520.522 166.937C523.369 165.775 526.442 165.193 529.741 165.193C533.015 165.193 536.076 165.775 538.924 166.937C541.795 168.1 544.31 169.82 546.469 172.098C548.629 174.376 550.313 177.2 551.523 180.569C552.734 183.915 553.339 187.783 553.339 192.173C553.339 196.539 552.722 200.418 551.488 203.812C550.278 207.181 548.581 210.017 546.398 212.318C544.239 214.62 541.724 216.364 538.852 217.55C536.005 218.737 532.968 219.33 529.741 219.33ZM529.741 210.467C531.947 210.467 533.988 209.862 535.863 208.652C537.761 207.442 539.279 205.496 540.418 202.815C541.557 200.11 542.127 196.562 542.127 192.173C542.127 187.759 541.546 184.224 540.383 181.566C539.244 178.908 537.737 176.998 535.863 175.836C533.988 174.649 531.947 174.056 529.741 174.056C527.534 174.056 525.481 174.649 523.583 175.836C521.708 176.998 520.202 178.908 519.063 181.566C517.924 184.224 517.354 187.759 517.354 192.173C517.354 196.586 517.924 200.134 519.063 202.815C520.202 205.496 521.708 207.442 523.583 208.652C525.481 209.862 527.534 210.467 529.741 210.467ZM556.015 218.476V165.976H567.084V215.166L562.101 209.471H586.625V218.476H556.015Z" fill="url(#paint11_linear)"/>
<path d="M339.322 233.127H327.025L329.579 229.677V266.436H322.628V229.677L325.313 233.127H312.912V227.597H339.322V233.127ZM340.379 254.692V249.768H359.943L359.153 251.084C359.153 250.979 359.153 250.865 359.153 250.742C359.153 250.602 359.153 250.488 359.153 250.4C359.153 249.189 358.881 248.056 358.337 247.003C357.792 245.932 356.967 245.072 355.861 244.423C354.755 243.756 353.351 243.422 351.648 243.422C349.963 243.422 348.497 243.782 347.251 244.502C346.022 245.204 345.066 246.222 344.381 247.556C343.714 248.89 343.38 250.488 343.38 252.348C343.38 254.262 343.705 255.912 344.355 257.299C345.004 258.668 345.952 259.721 347.198 260.458C348.462 261.178 349.998 261.538 351.806 261.538C353.035 261.538 354.097 261.424 354.992 261.196C355.888 260.967 356.616 260.66 357.178 260.274C357.757 259.87 358.187 259.44 358.468 258.984C358.767 258.527 358.942 258.071 358.995 257.615H365.894C365.788 258.791 365.393 259.941 364.709 261.064C364.042 262.17 363.102 263.179 361.891 264.092C360.68 264.987 359.205 265.707 357.468 266.251C355.747 266.778 353.781 267.041 351.569 267.041C348.568 267.041 345.943 266.427 343.696 265.198C341.449 263.969 339.694 262.258 338.43 260.063C337.184 257.869 336.561 255.359 336.561 252.533C336.561 249.636 337.193 247.1 338.456 244.923C339.738 242.746 341.511 241.052 343.775 239.841C346.04 238.612 348.638 237.998 351.569 237.998C354.589 237.998 357.195 238.612 359.39 239.841C361.602 241.07 363.304 242.781 364.498 244.976C365.692 247.152 366.289 249.689 366.289 252.585C366.289 252.954 366.28 253.349 366.262 253.77C366.245 254.192 366.218 254.499 366.183 254.692H340.379ZM380.398 267.015C378.73 267.015 377.141 266.831 375.632 266.462C374.139 266.093 372.805 265.54 371.629 264.803C370.471 264.066 369.549 263.153 368.864 262.065C368.197 260.959 367.864 259.686 367.864 258.247C367.864 258.141 367.864 258.036 367.864 257.931C367.864 257.825 367.864 257.729 367.864 257.641H374.763C374.763 257.729 374.763 257.808 374.763 257.878C374.763 257.931 374.763 258.01 374.763 258.115C374.763 259.256 375.28 260.116 376.316 260.695C377.369 261.257 378.8 261.538 380.608 261.538C381.591 261.538 382.513 261.433 383.373 261.222C384.251 261.011 384.953 260.687 385.479 260.248C386.024 259.809 386.296 259.247 386.296 258.563C386.296 257.457 385.725 256.667 384.584 256.193C383.461 255.719 381.688 255.289 379.265 254.902C377.931 254.674 376.615 254.367 375.316 253.981C374.017 253.595 372.832 253.077 371.761 252.427C370.708 251.778 369.856 250.97 369.207 250.005C368.575 249.039 368.259 247.863 368.259 246.477C368.259 244.633 368.803 243.089 369.891 241.842C370.997 240.578 372.472 239.622 374.315 238.972C376.176 238.323 378.221 237.998 380.45 237.998C382.592 237.998 384.584 238.349 386.427 239.051C388.271 239.753 389.754 240.763 390.877 242.079C392.018 243.396 392.589 244.984 392.589 246.845C392.589 246.915 392.589 246.994 392.589 247.082C392.589 247.152 392.589 247.214 392.589 247.266H385.743C385.743 247.214 385.743 247.161 385.743 247.108C385.743 247.056 385.743 246.994 385.743 246.924C385.743 246.117 385.488 245.458 384.979 244.949C384.47 244.44 383.812 244.063 383.004 243.817C382.197 243.571 381.345 243.448 380.45 243.448C379.66 243.448 378.844 243.536 378.001 243.712C377.159 243.87 376.457 244.159 375.895 244.581C375.333 244.984 375.052 245.555 375.052 246.292C375.052 246.994 375.342 247.565 375.921 248.004C376.501 248.443 377.308 248.811 378.344 249.11C379.379 249.39 380.573 249.645 381.925 249.873C383.206 250.084 384.496 250.374 385.795 250.742C387.112 251.111 388.314 251.602 389.403 252.217C390.491 252.831 391.369 253.639 392.036 254.639C392.721 255.622 393.063 256.842 393.063 258.299C393.063 259.844 392.712 261.161 392.01 262.249C391.307 263.337 390.351 264.241 389.139 264.961C387.946 265.663 386.594 266.181 385.084 266.515C383.575 266.848 382.013 267.015 380.398 267.015ZM408.369 266.962C407.368 266.962 406.35 266.866 405.314 266.673C404.279 266.479 403.331 266.12 402.47 265.593C401.61 265.066 400.917 264.294 400.39 263.276C399.864 262.258 399.6 260.915 399.6 259.247C399.6 258.861 399.6 258.475 399.6 258.089C399.6 257.685 399.6 257.272 399.6 256.851V244.001H392.991V238.472H395.677C396.59 238.472 397.31 238.437 397.836 238.366C398.363 238.279 398.749 238.086 398.995 237.787C399.241 237.489 399.398 237.024 399.469 236.392C399.556 235.742 399.6 234.847 399.6 233.706V229.256H406.552V238.472H414.872V244.001H406.552V255.218C406.552 255.552 406.552 255.886 406.552 256.219C406.552 256.535 406.552 256.842 406.552 257.141C406.552 258.44 406.71 259.484 407.026 260.274C407.342 261.064 408.088 261.459 409.264 261.459C409.826 261.459 410.352 261.406 410.844 261.301C411.353 261.196 411.73 261.09 411.976 260.985V266.409C411.643 266.532 411.16 266.655 410.528 266.778C409.896 266.901 409.176 266.962 408.369 266.962ZM417.205 266.436V225.28H423.788V249.399L422.287 248.662L433.847 238.472H442.457L428.765 250.663L430.318 247.819L442.325 266.436H435.005L425.789 251.506L427.474 251.795L422.998 255.798L423.788 252.717V266.436H417.205ZM443.285 266.436V238.472H450.132V266.436H443.285ZM446.735 233.311C445.611 233.311 444.628 233.012 443.786 232.416C442.961 231.801 442.548 230.95 442.548 229.862C442.548 228.791 442.961 227.957 443.786 227.36C444.628 226.763 445.611 226.465 446.735 226.465C447.841 226.465 448.806 226.763 449.631 227.36C450.456 227.957 450.869 228.791 450.869 229.862C450.869 230.95 450.456 231.801 449.631 232.416C448.806 233.012 447.841 233.311 446.735 233.311ZM466.947 266.962C465.947 266.962 464.929 266.866 463.893 266.673C462.857 266.479 461.909 266.12 461.049 265.593C460.189 265.066 459.496 264.294 458.969 263.276C458.442 262.258 458.179 260.915 458.179 259.247C458.179 258.861 458.179 258.475 458.179 258.089C458.179 257.685 458.179 257.272 458.179 256.851V244.001H451.57V238.472H454.256C455.168 238.472 455.888 238.437 456.415 238.366C456.941 238.279 457.328 238.086 457.573 237.787C457.819 237.489 457.977 237.024 458.047 236.392C458.135 235.742 458.179 234.847 458.179 233.706V229.256H465.13V238.472H473.451V244.001H465.13V255.218C465.13 255.552 465.13 255.886 465.13 256.219C465.13 256.535 465.13 256.842 465.13 257.141C465.13 258.44 465.288 259.484 465.604 260.274C465.92 261.064 466.666 261.459 467.843 261.459C468.404 261.459 468.931 261.406 469.422 261.301C469.932 261.196 470.309 261.09 470.555 260.985V266.409C470.221 266.532 469.738 266.655 469.106 266.778C468.475 266.901 467.755 266.962 466.947 266.962Z" fill="#312F4F"/>
<rect x="423.719" y="224.436" width="13" height="12" fill="white"/>
<defs>
<linearGradient id="paint0_linear" x1="285.503" y1="256.687" x2="208.243" y2="171.609" gradientUnits="userSpaceOnUse">
<stop stop-color="#743AE8"/>
<stop offset="1" stop-color="#3A48E8"/>
</linearGradient>
<linearGradient id="paint1_linear" x1="235.677" y1="204.434" x2="185.457" y2="182.462" gradientUnits="userSpaceOnUse">
<stop stop-color="#743AE8"/>
<stop offset="1" stop-color="#3A48E8"/>
</linearGradient>
<linearGradient id="paint2_linear" x1="241.988" y1="211.472" x2="190.712" y2="197.41" gradientUnits="userSpaceOnUse">
<stop stop-color="#743AE8"/>
<stop offset="1" stop-color="#3A48E8"/>
</linearGradient>
<linearGradient id="paint3_linear" x1="204.679" y1="219.71" x2="187.847" y2="210.172" gradientUnits="userSpaceOnUse">
<stop stop-color="#743AE8"/>
<stop offset="1" stop-color="#3A48E8"/>
</linearGradient>
<linearGradient id="paint4_linear" x1="241.015" y1="171.845" x2="209.056" y2="162.804" gradientUnits="userSpaceOnUse">
<stop stop-color="#743AE8"/>
<stop offset="1" stop-color="#3A48E8"/>
</linearGradient>
<linearGradient id="paint5_linear" x1="243.817" y1="169.107" x2="219.243" y2="163.392" gradientUnits="userSpaceOnUse">
<stop stop-color="#743AE8"/>
<stop offset="1" stop-color="#3A48E8"/>
</linearGradient>
<linearGradient id="paint6_linear" x1="239.247" y1="205.971" x2="191.456" y2="187.385" gradientUnits="userSpaceOnUse">
<stop stop-color="#743AE8"/>
<stop offset="1" stop-color="#3A48E8"/>
</linearGradient>
<linearGradient id="paint7_linear" x1="228.935" y1="249.022" x2="177.779" y2="225.874" gradientUnits="userSpaceOnUse">
<stop stop-color="#743AE8"/>
<stop offset="1" stop-color="#3A48E8"/>
</linearGradient>
<linearGradient id="paint8_linear" x1="199.01" y1="263.839" x2="182.674" y2="253.451" gradientUnits="userSpaceOnUse">
<stop stop-color="#743AE8"/>
<stop offset="1" stop-color="#3A48E8"/>
</linearGradient>
<linearGradient id="paint9_linear" x1="211.439" y1="221.87" x2="198.094" y2="213.594" gradientUnits="userSpaceOnUse">
<stop stop-color="#743AE8"/>
<stop offset="1" stop-color="#3A48E8"/>
</linearGradient>
<linearGradient id="paint10_linear" x1="252.541" y1="201.905" x2="187.551" y2="171.949" gradientUnits="userSpaceOnUse">
<stop stop-color="#743AE8"/>
<stop offset="1" stop-color="#3A48E8"/>
</linearGradient>
<linearGradient id="paint11_linear" x1="590.173" y1="231.133" x2="552.221" y2="96.2502" gradientUnits="userSpaceOnUse">
<stop stop-color="#743AE8"/>
<stop offset="1" stop-color="#3A48E8"/>
</linearGradient>
</defs>
</svg>
